<svg xmlns="http://www.w3.org/2000/svg" version="1.0" width="1925.000000pt" height="1661.000000pt" viewBox="0 0 1925.000000 1661.000000" preserveAspectRatio="xMidYMid meet">

<g transform="translate(0.000000,1661.000000) scale(0.100000,-0.100000)" fill="#cc5500" stroke="none">
<path d="M7710 16599 c-807 -73 -1518 -229 -2225 -486 -1689 -615 -3171 -1806 -4145 -3334 -563 -883 -964 -1890 -1154 -2899 -87 -464 -122 -780 -137 -1232 -13 -377 -1 -900 26 -1158 138 -1321 563 -2546 1267 -3652 602 -947 1477 -1836 2420 -2461 1142 -756 2510 -1233 3868 -1349 214 -18 1266 -18 1440 0 1013 106 1798 310 2655 689 635 281 1220 637 1816 1105 l144 113 -359 3 -359 2 -241 -159 c-297 -195 -445 -284 -657 -397 -1002 -533 -1999 -823 -3144 -916 -206 -17 -923 -16 -1145 0 -696 53 -1320 179 -1955 396 -1171 399 -2195 1040 -3061 1917 -303 307 -488 520 -722 834 -675 904 -1126 1894 -1377 3020 -116 523 -161 924 -172 1520 -13 791 52 1373 237 2099 400 1575 1270 2970 2520 4041 1147 984 2577 1619 4070 1809 401 51 555 60 1040 60 545 1 806 -19 1300 -99 1072 -175 2209 -634 3120 -1260 l181 -125 362 2 362 3 -113 90 c-292 232 -682 503 -957 667 -702 417 -1479 740 -2230 927 -471 117 -1066 210 -1474 231 -234 12 -1067 11 -1201 -1z" fill="#cc5500"/>
<path d="M12920 8385 l0 -5065 163 1 c89 1 199 4 245 7 l84 7 53 130 c29 72 117 288 195 480 153 376 209 505 219 504 3 0 33 -39 66 -86 174 -251 390 -483 586 -630 526 -393 1116 -569 1848 -550 601 16 1088 167 1496 464 621 454 1026 1135 1210 2037 44 217 80 462 96 652 18 209 18 1119 1 1284 -67 643 -182 1076 -403 1520 -276 551 -635 938 -1103 1189 -530 283 -1301 382 -1931 246 -352 -76 -649 -212 -979 -447 -118 -85 -349 -307 -453 -436 -55 -68 -78 -90 -84 -80 -5 7 -9 874 -9 1926 l0 1912 -650 0 -650 0 0 -5065z m3333 1199 c270 -13 587 -122 812 -279 114 -80 301 -274 384 -400 222 -333 353 -761 421 -1370 18 -155 24 -831 11 -1061 -33 -550 -135 -991 -313 -1344 -215 -428 -515 -693 -938 -828 -213 -69 -524 -96 -800 -72 -609 55 -1036 340 -1300 868 -162 324 -254 701 -302 1232 -17 194 -17 932 0 1140 44 520 140 924 297 1245 96 197 197 338 339 473 192 182 453 311 756 373 177 36 292 40 633 23z" fill="#cc5500"/>
<path d="M8763 12782 c-12 -8 -105 -466 -350 -1722 l-108 -555 -413 -3 -412 -2 0 -525 0 -525 389 0 389 0 5 -2217 c5 -2236 8 -2395 43 -2613 104 -652 360 -1055 809 -1270 244 -117 513 -170 865 -170 424 0 819 67 1145 194 l110 43 3 464 c1 255 0 473 -2 485 -5 19 -14 17 -208 -47 -315 -105 -368 -114 -643 -114 l-230 0 -87 31 c-117 42 -189 86 -269 165 -83 82 -132 169 -181 322 l-38 119 0 2304 0 2304 830 0 830 0 0 525 0 525 -830 0 -830 0 0 1145 0 1145 -402 0 c-222 0 -409 -4 -415 -8z" fill="#cc5500"/>
</g>
</svg>