<?xml version="1.0" standalone="no"?>
<!DOCTYPE svg PUBLIC "-//W3C//DTD SVG 20010904//EN"
 "http://www.w3.org/TR/2001/REC-SVG-20010904/DTD/svg10.dtd">
<svg version="1.0" xmlns="http://www.w3.org/2000/svg"
 width="2048.000000pt" height="2048.000000pt" viewBox="0 0 2048.000000 2048.000000"
 preserveAspectRatio="xMidYMid meet">

<g transform="translate(0.000000,2048.000000) scale(0.100000,-0.100000)"
fill="#000000" stroke="none">
<path d="M16324 14825 c-399 -72 -1074 -379 -1814 -823 -886 -532 -1779 -1157
-2405 -1681 -1759 -1474 -2975 -2903 -3699 -4348 -202 -405 -326 -759 -356
-1020 -21 -182 14 -341 103 -465 101 -142 253 -218 437 -218 214 0 411 103
740 386 247 213 977 958 1976 2019 409 435 503 538 846 935 160 184 306 347
326 363 39 30 200 84 512 170 700 195 1562 347 2198 387 285 18 285 18 -28
-207 -416 -298 -927 -625 -2035 -1300 -1542 -940 -1742 -1067 -1951 -1235
-267 -215 -444 -479 -444 -662 0 -85 22 -118 97 -146 49 -19 77 -22 183 -22
104 1 145 6 241 30 187 48 389 136 629 275 109 63 1851 1127 2350 1435 1300
802 1961 1282 2192 1592 178 238 214 475 105 693 -76 155 -234 277 -435 337
-282 83 -777 93 -1373 26 -203 -23 -239 -24 -239 -5 0 10 0 10 345 267 873
650 1402 1142 1789 1666 332 448 469 746 468 1016 0 87 -5 119 -26 184 -81
241 -274 367 -555 365 -58 0 -138 -7 -177 -14z m0 -664 c3 -4 -9 -30 -26 -57
-193 -305 -1050 -1100 -1828 -1696 -257 -197 -583 -429 -598 -426 -10 2 -20
21 -27 46 -23 98 -114 129 -218 76 -147 -73 -431 -320 -1004 -872 -298 -286
-338 -320 -504 -423 -179 -110 -228 -167 -313 -359 -20 -46 -77 -109 -342
-380 -482 -493 -543 -556 -914 -950 -636 -675 -1155 -1211 -1190 -1230 -15 -8
-20 -8 -20 1 0 20 94 189 192 347 672 1084 1602 2123 2898 3238 366 315 1011
842 1340 1095 1042 802 1871 1334 2425 1558 105 43 120 46 129 32z"/>
<path d="M10925 14494 c-891 -67 -1618 -183 -2690 -429 -1079 -247 -1918 -527
-2785 -927 -497 -230 -908 -464 -1169 -666 -116 -90 -268 -242 -321 -322 -226
-336 -82 -726 305 -825 307 -79 783 -18 1469 190 377 114 479 151 1726 622
168 63 591 211 940 328 1044 350 1012 338 1106 432 61 61 98 134 115 227 14
84 1 164 -44 254 -27 55 -29 64 -16 77 15 15 246 56 573 100 247 33 685 77
703 71 7 -3 13 -12 13 -20 0 -16 -235 -229 -586 -530 -224 -193 -822 -683
-1329 -1091 -1166 -937 -2077 -1714 -2785 -2375 -712 -665 -1015 -963 -1495
-1475 -358 -380 -507 -532 -772 -783 -246 -233 -301 -319 -311 -488 -18 -316
289 -526 574 -392 69 32 124 76 321 258 232 215 420 404 787 795 383 409 746
771 1161 1162 983 924 1695 1536 3095 2663 950 765 1354 1104 1895 1590 82 74
240 214 350 311 287 253 355 331 413 477 23 59 26 81 26 182 0 96 -4 124 -23
173 -83 211 -263 337 -561 393 -63 12 -158 17 -360 19 -151 1 -297 1 -325 -1z"/>
</g>
</svg>
